Coordinates
version=1
nRows=14
nColumns=24
inDegrees=yes

Units are S.I. units (second, meters, Newtons, ...)
Angles are in degrees.

endheader
time	pelvis_tilt	pelvis_list	pelvis_rotation	pelvis_tx	pelvis_ty	pelvis_tz	hip_flexion_r	hip_adduction_r	hip_rotation_r	knee_angle_r	ankle_angle_r	subtalar_angle_r	mtp_angle_r	hip_flexion_l	hip_adduction_l	hip_rotation_l	knee_angle_l	ankle_angle_l	subtalar_angle_l	mtp_angle_l	lumbar_extension	lumbar_bending	lumbar_rotation
      3.25000000	     -8.66143194	      2.80308686	      5.62761029	      0.13687818	      0.96959376	      0.05656809	     -1.98927934	     -4.05886924	    -15.39461088	    -10.16173368	     12.59413334	      0.00000000	      0.00000000	     24.80961082	      0.39860498	     -6.56871377	      5.82249662	     -6.70777507	      0.00000000	      0.00000000	     -1.30353696	     -2.79031233	     11.31013380
      3.26000000	     -8.71376776	      2.73450551	      5.48850414	      0.13733189	      0.96819149	      0.05474055	     -2.36180722	     -4.11272239	    -15.38140877	    -10.32664838	     12.59636133	      0.00000000	      0.00000000	     24.96096478	      0.42492720	     -6.57589085	      5.83621159	     -6.69218903	      0.00000000	      0.00000000	     -1.21596602	     -2.77059660	     11.32793332
      3.27000000	     -8.40998191	      2.77124584	      4.95001502	      0.13775498	      0.96726519	      0.05341021	     -2.96635588	     -4.28064905	    -14.83919528	    -10.69072671	     12.81874841	      0.00000000	      0.00000000	     24.89195459	      0.36502099	     -7.30065545	      5.23112811	     -6.09997199	      0.00000000	      0.00000000	     -1.58593982	     -2.84607165	     11.74961064
      3.28000000	     -8.26880130	      2.77588484	      4.56521612	      0.13838539	      0.96616312	      0.05171985	     -3.41258337	     -4.44724036	    -14.52048442	    -11.07795615	     12.90675904	      0.00000000	      0.00000000	     24.91984546	      0.33348716	     -7.72859583	      4.64185552	     -6.14394778	      0.00000000	      0.00000000	     -1.72489385	     -2.90160316	     12.00403929
      3.29000000	     -8.17999484	      2.74788056	      4.29558961	      0.13916866	      0.96503300	      0.04975284	     -3.82086718	     -4.59389653	    -14.39393806	    -11.45450252	     12.87591677	      0.00000000	      0.00000000	     25.01315088	      0.29177041	     -7.83502448	      3.88439003	     -6.48193441	      0.00000000	      0.00000000	     -1.77836652	     -2.92429178	     12.14555892
      3.30000000	     -8.02756859	      2.74291423	      3.98161663	      0.13996150	      0.96406342	      0.04774797	     -4.22032835	     -4.78550501	    -14.18392605	    -11.97541876	     12.83342191	      0.00000000	      0.00000000	     25.10175274	      0.24097144	     -8.05478013	      2.86447433	     -6.92872534	      0.00000000	      0.00000000	     -1.91495246	     -2.97489984	     12.31190875
      3.31000000	     -7.86627338	      2.75976322	      3.65183305	      0.14095356	      0.96320944	      0.04564144	     -4.58142276	     -5.02649262	    -13.91253619	    -12.61042594	     12.78349482	      0.00000000	      0.00000000	     25.15000220	      0.20118233	     -8.34597493	      1.77292304	     -7.41391606	      0.00000000	      0.00000000	     -2.04148894	     -3.04075808	     12.47958570
      3.32000000	     -7.70213770	      2.88463190	      3.09826408	      0.14195611	      0.96248122	      0.04373086	     -4.76164406	     -5.43791368	    -13.34103842	    -13.56453987	     12.89248944	      0.00000000	      0.00000000	     25.20874055	      0.16864390	     -9.03883568	      0.52078932	     -7.88546521	      0.00000000	      0.00000000	     -2.16796566	     -3.24546831	     12.88658672
      3.33000000	     -7.55214622	      2.91820599	      2.86428432	      0.14309228	      0.96192183	      0.04128543	     -5.02772753	     -5.73192374	    -13.15787457	    -14.36176648	     12.62242561	      0.00000000	      0.00000000	     25.28398794	      0.15545194	     -9.05186662	     -0.74849199	     -8.59192499	      0.00000000	      0.00000000	     -2.27404303	     -3.33544352	     12.95553341
      3.34000000	     -7.40545631	      2.98027940	      2.62574998	      0.14439875	      0.96156570	      0.03871530	     -5.29088381	     -6.06480241	    -12.99585704	    -15.11715629	     12.28484553	      0.00000000	      0.00000000	     25.30844276	      0.15489483	     -8.88938340	     -1.99619438	     -9.24672882	      0.00000000	      0.00000000	     -2.34573603	     -3.45802057	     13.09308340
      3.35000000	     -7.22241611	      3.06855184	      2.47371603	      0.14561398	      0.96149131	      0.03601261	     -5.45213947	     -6.44276254	    -12.79006940	    -16.19053638	     11.77907221	      0.00000000	      0.00000000	     25.36296966	      0.22048601	     -8.86214096	     -3.37990436	     -9.86149698	      0.00000000	      0.00000000	     -2.49351909	     -3.60781520	     13.08607751
      3.36000000	     -7.08765954	      3.18457383	      2.30589794	      0.14695754	      0.96160623	      0.03315605	     -5.49162730	     -6.88238239	    -12.63731271	    -17.34666023	     11.19333525	      0.00000000	      0.00000000	     25.40686885	      0.31931839	     -8.86803836	     -4.72009424	    -10.26110439	      0.00000000	      0.00000000	     -2.56628898	     -3.76634959	     13.08534948
      3.37000000	     -7.20564965	      3.35164561	      2.13551867	      0.14825239	      0.96154733	      0.03025080	     -5.09961078	     -7.42195126	    -12.40605558	    -18.80887229	     10.56114848	      0.00000000	      0.00000000	     25.81717285	      0.46158463	     -9.01905757	     -6.32597606	    -10.14784858	      0.00000000	      0.00000000	     -2.32987465	     -4.00769696	     13.18253071
      3.38000000	     -7.03298252	      3.41080442	      2.09209281	      0.14963296	      0.96223420	      0.02715027	     -5.05775823	     -7.80535352	    -12.24023425	    -20.14319290	      9.62499318	      0.00000000	      0.00000000	     25.70755290	      0.57157680	     -8.80757002	     -7.46163167	    -10.43279651	      0.00000000	      0.00000000	     -2.44765794	     -4.09592502	     13.09832889
